<?xml version="1.0" standalone="no"?>
<!DOCTYPE svg PUBLIC "-//W3C//DTD SVG 20010904//EN"
    "http://www.w3.org/TR/2001/REC-SVG-20010904/DTD/svg10.dtd">
<svg version="1.0" xmlns="http://www.w3.org/2000/svg"
     width="3017.000000pt" height="3017.000000pt" viewBox="0 0 3017.000000 3017.000000"
     preserveAspectRatio="xMidYMid meet">
    <g transform="translate(0.000000,3017.000000) scale(0.100000,-0.100000)"
       fill="#000000" stroke="none">
        <path d="M13080 29791 c297 -634 482 -1261 557 -1892 22 -182 25 -707 5 -874
-150 -1252 -801 -2456 -2241 -4145 -436 -511 -690 -791 -2022 -2230 -1041
-1125 -1627 -1793 -2204 -2515 -1768 -2212 -2708 -4180 -2970 -6215 -101 -786
-97 -1545 10 -2296 387 -2695 2080 -5365 4985 -7858 485 -417 1206 -988 1454
-1153 258 -172 552 -288 866 -343 160 -28 452 -38 612 -21 610 65 1171 360
1522 800 217 271 353 607 385 946 15 153 31 989 21 1051 -25 153 -55 209 -260
484 -1316 1772 -1874 2817 -1994 3740 -25 194 -38 464 -32 660 34 1002 40
1109 86 1620 114 1256 389 3585 741 6275 83 639 85 654 101 672 25 31 75 43
178 43 111 0 159 -14 184 -52 13 -21 13 -429 -1 -3924 -14 -3148 -14 -3910 -4
-3944 7 -23 31 -62 54 -87 79 -86 196 -123 328 -102 128 20 206 73 228 156 6
21 95 1793 197 3938 103 2145 191 3917 196 3937 13 56 44 68 172 68 96 0 107
-2 133 -24 l27 -24 13 -278 c48 -1083 166 -4005 203 -5014 34 -940 40 -1158
50 -1660 10 -519 21 -663 65 -835 39 -157 106 -275 177 -311 44 -23 281 -24
325 -1 90 47 162 203 203 437 21 119 24 195 50 1205 6 226 22 718 35 1095 48
1339 89 2350 205 5080 6 135 13 255 16 268 9 44 58 62 171 62 98 0 104 -1 133
-27 l31 -28 189 -3925 c104 -2159 192 -3940 195 -3958 9 -50 76 -117 143 -143
82 -32 237 -33 305 -2 75 35 123 79 153 139 l27 55 -17 3909 c-13 2846 -14
3914 -6 3929 23 43 62 53 201 49 122 -3 130 -4 154 -28 23 -24 28 -48 99 -600
470 -3603 763 -6189 806 -7095 53 -1148 39 -1503 -81 -1955 -221 -835 -806
-1846 -1961 -3393 -133 -178 -170 -245 -199 -356 -19 -72 -20 -96 -14 -426 11
-577 21 -787 45 -909 113 -579 510 -1067 1094 -1346 655 -314 1380 -314 2021
0 175 85 260 141 561 365 2109 1574 3670 3215 4714 4954 834 1390 1324 2823
1455 4251 52 573 45 1219 -20 1795 -176 1554 -746 3068 -1753 4650 -449 707
-1058 1518 -1747 2329 l-150 176 -7 -249 c-22 -822 -171 -1470 -483 -2106
-217 -441 -460 -781 -804 -1126 -379 -378 -728 -629 -1188 -851 -154 -75 -195
-88 -207 -69 -3 5 12 124 34 265 123 798 239 1764 304 2551 92 1097 107 1889
51 2645 -172 2314 -1009 4452 -2468 6304 -858 1090 -1940 2079 -3152 2881
-370 245 -657 419 -990 600 -160 87 -370 195 -379 195 -2 0 36 -85 84 -189z"/>
    </g>
</svg>
